<svg
  width="47"
  height="77"
  viewBox="0 0 47 77"
  xmlns="http://www.w3.org/2000/svg"
  fill="none"
>
  <style>
    :root {
      fill: #000;
    }
    @media (prefers-color-scheme: dark) {
      :root {
        fill: #fff;
      }
    }
  </style>
  <path
    d="M 44.75 0 L 47.1 0 L 47.05 8.45 L 39.3 8.45 Q 40.05 9.4 40.575 10.775 Q 41.1 12.15 41.425 13.8 Q 41.75 15.45 41.75 17.4 Q 41.75 23 39.1 27.125 Q 36.45 31.25 31.9 33.5 Q 27.35 35.75 21.6 35.75 Q 19.8 35.75 18.025 35.575 Q 16.25 35.4 14.75 35.1 Q 13.5 36.1 12.8 37.275 Q 12.1 38.45 12.1 40.35 Q 12.1 43.4 14.125 44.55 Q 16.15 45.7 20.9 45.7 L 31.2 45.7 Q 36 45.7 39.325 47.225 Q 42.65 48.75 44.35 51.375 Q 46.05 54 46.05 57.4 Q 46.05 62 44.025 65.65 Q 42 69.3 38.425 71.875 Q 34.85 74.45 30.2 75.825 Q 25.55 77.2 20.4 77.2 Q 16.85 77.2 13.25 76.5 Q 9.65 75.8 6.65 74.275 Q 3.65 72.75 1.825 70.25 Q 0 67.75 0 64.2 Q 0 61.4 1.275 59.2 Q 2.55 57 4.725 55.5 Q 6.9 54 9.6 53.4 Q 7.3 52.05 6.025 49.95 Q 4.75 47.85 4.75 44.7 Q 4.75 42.5 5.675 40.525 Q 6.6 38.55 8.375 36.925 Q 10.15 35.3 12.6 34.25 Q 7.45 31.95 5.125 27.8 Q 2.8 23.65 2.8 18.15 Q 2.8 12.45 5.55 8.4 Q 8.3 4.35 12.925 2.225 Q 17.55 0.1 23.15 0.1 Q 28.55 0.1 31.875 1.5 Q 35.2 2.9 37 4.85 Q 37.75 2.8 40.075 1.4 Q 42.4 0 44.75 0 Z M 27.85 55.2 L 20.45 55.2 Q 18.1 55.2 15.825 54.975 Q 13.55 54.75 11.9 54.3 Q 10.8 55.35 9.925 57.125 Q 9.05 58.9 9.05 62.3 Q 9.05 66.2 10.825 68.775 Q 12.6 71.35 15.475 72.6 Q 18.35 73.85 21.55 73.85 Q 25.7 73.85 29 72.425 Q 32.3 71 34.25 68.325 Q 36.2 65.65 36.2 62 Q 36.2 59.85 35.4 58.35 Q 34.6 56.85 32.8 56.025 Q 31 55.2 27.85 55.2 Z M 21.95 32.55 Q 26.15 32.55 28.425 28.975 Q 30.7 25.4 30.7 17.95 Q 30.7 13.5 29.725 10.2 Q 28.75 6.9 26.975 5.1 Q 25.2 3.3 22.7 3.3 Q 20 3.3 18.025 4.85 Q 16.05 6.4 15 9.6 Q 13.95 12.8 13.95 17.8 Q 13.95 22.2 14.9 25.525 Q 15.85 28.85 17.625 30.7 Q 19.4 32.55 21.95 32.55 Z"
  />
</svg>
